<svg xmlns="http://www.w3.org/2000/svg" xmlns:xlink="http://www.w3.org/1999/xlink" width="70.487" height="37.639" viewBox="0 0 70.487 37.639">
  <defs>
    <linearGradient id="linear-gradient" x1="-0.088" y1="-0.185" x2="1.081" y2="1.174" gradientUnits="objectBoundingBox">
      <stop offset="0" stop-color="#ff2626"/>
      <stop offset="0.529" stop-color="#d51392"/>
      <stop offset="1" stop-color="#ab00ff"/>
    </linearGradient>
    <linearGradient id="linear-gradient-2" x1="-0.099" y1="0.014" x2="1.101" y2="0.996" xlink:href="#linear-gradient"/>
    <linearGradient id="linear-gradient-3" x1="-0.243" y1="0.048" x2="1.219" y2="0.958" xlink:href="#linear-gradient"/>
  </defs>
  <g id="Camada_x0020_1" transform="translate(12.474 -25.564)">
    <g id="_394433416" transform="translate(-12.474 25.564)">
      <g id="Grupo_14" data-name="Grupo 14" transform="translate(0 0)">
        <path id="Caminho_24" data-name="Caminho 24" d="M4808.633,2927.871l.069-.027c.181-.055-.1.013.069-.014l.459-.028c.68-.028.791.11.694-.583-.028-.237-.014-.486-.028-.723a17.107,17.107,0,0,1,7.06-14.271,15.946,15.946,0,0,1,2.668-1.654,17.166,17.166,0,0,1,6.906-1.834,14.437,14.437,0,0,1,3.96.264c.6.152,1.07.2,1.708.417.542.194,1.028.347,1.556.583a18.488,18.488,0,0,1,6.17,4.544c.319.361.653.82.959,1.2a13.555,13.555,0,0,1,.888,1.262c.292.445.528.89.792,1.376a18.484,18.484,0,0,1,1.277,3.057,3.53,3.53,0,0,0,.307.765.647.647,0,0,0,.765.181c.624-.278.236-1.028.055-1.571a13.34,13.34,0,0,0-.556-1.625c-.194-.445-.487-1.043-.709-1.445a20.279,20.279,0,0,0-5.99-6.949,17.416,17.416,0,0,0-5.767-2.793,16.585,16.585,0,0,0-1.737-.375c-.653-.083-1.25-.139-1.932-.18a18.006,18.006,0,0,0-4.072.264c-.638.125-1.167.236-1.791.4a18.6,18.6,0,0,0-3.142,1.2,19.126,19.126,0,0,0-2.71,1.612c-.208.138-.4.292-.61.445-.362.278-1.4,1.237-1.724,1.528a10.043,10.043,0,0,0-1.084,1.111,18.265,18.265,0,0,0-4.03,7.713,19.306,19.306,0,0,0-.445,2.738c-.013.319-.027.723-.055,1.042s-.014.682-.028,1.029a7.114,7.114,0,0,1-.806.11,11.272,11.272,0,0,0-2.141.583,9.725,9.725,0,0,0-4.864,4.141,10.447,10.447,0,0,0-.583,1.195,8.228,8.228,0,0,0-.611,2.516,6.347,6.347,0,0,0-.028,2.057,3.717,3.717,0,0,1,.028.417,2.385,2.385,0,0,1,.069.389,1.36,1.36,0,0,0,.083.389c.028.194.055.194.083.375a8.368,8.368,0,0,0,5.073,5.74,9.636,9.636,0,0,0,2.932.612c.625.042,1.1-.029,1.723-.042l5.364-.084c9.575-.18,19.108-.278,28.7-.472,5.393-.11,10.757-.165,16.148-.264.556-.014,1.25-.054,1.779-.014l3.085-.014c.152-.014.194-.07.36-.083a5.642,5.642,0,0,0,4.809-4.2c.892-3.516-1.569-6.5-4.892-7.379a10.61,10.61,0,0,0-3.32-.223c-.848.014-.933.57-.751.89.251.431.9.306,1.473.306a7.135,7.135,0,0,1,3.043.5,5.676,5.676,0,0,1,2.862,2.53,4.374,4.374,0,0,1-2.015,5.947c-1.237.584-1.723.4-3.155.431-4.752.11-9.574.153-14.313.236l-7.157.125c-2.4.042-4.74.042-7.158.083-2.389.042-4.794.1-7.184.139s-4.74.042-7.115.083l-10.784.209a9.964,9.964,0,0,1-3.321-.25,7.367,7.367,0,0,1-5.113-5.684,8.439,8.439,0,0,1,1.015-5.836,12.319,12.319,0,0,1,1.139-1.529c.153-.154.333-.292.487-.445a8.338,8.338,0,0,1,3.516-1.9,5.771,5.771,0,0,1,1.6-.237Z" transform="translate(-4799.487 -2907.422)" fill-rule="evenodd" fill="url(#linear-gradient)"/>
        <path id="Caminho_25" data-name="Caminho 25" d="M8153.877,3360.859a15.686,15.686,0,0,0-3.488.584c-.387.1-.68.208-1.042.3a5.268,5.268,0,0,0-.988.361c-.347.139-.666.251-.625.723.042.375.321.57.764.514.514-.069.389-.139,1-.348a18.086,18.086,0,0,1,4.544-.9,10.853,10.853,0,0,1,4.351.945,11.465,11.465,0,0,1,2.471,1.515,7.292,7.292,0,0,1,.681.653,8.035,8.035,0,0,1,1.28,1.4,9.764,9.764,0,0,1,1.042,1.655,10.9,10.9,0,0,1,1.208,5.558c-.013.472-.068.834.265,1.042a.6.6,0,0,0,.889-.292,6.626,6.626,0,0,0,.109-1.2,13.5,13.5,0,0,0-.362-3.113,11.729,11.729,0,0,0-.834-2.25,12.424,12.424,0,0,0-11.284-7.171Z" transform="translate(-8101.208 -3354.545)" fill-rule="evenodd" fill="url(#linear-gradient-2)"/>
        <path id="Caminho_26" data-name="Caminho 26" d="M5458,4280.387l1.262-.042a.427.427,0,0,0,.126-.263c0-.13-.013-.261-.028-.389-.013-.165.07-.612-.083-.7a6.386,6.386,0,0,0,.028.723c.1.694-.014.556-.7.583l-.458.027c-.164.028.111-.041-.068.015l-.069.028Z" transform="translate(-5448.853 -4259.94)" fill-rule="evenodd" fill="url(#linear-gradient-3)"/>
      </g>
    </g>
  </g>
</svg>
