<svg xmlns="http://www.w3.org/2000/svg" xmlns:xlink="http://www.w3.org/1999/xlink" width="864.036" height="780.994" viewBox="0 0 864.036 780.994">
  <defs>
    <linearGradient id="linear-gradient" x1="-0.088" y1="-0.185" x2="1.081" y2="1.174" gradientUnits="objectBoundingBox">
      <stop offset="0" stop-color="#ff2626"/>
      <stop offset="0.529" stop-color="#d51392"/>
      <stop offset="1" stop-color="#ab00ff"/>
    </linearGradient>
    <linearGradient id="linear-gradient-2" x1="-0.099" y1="0.014" x2="1.101" y2="0.996" xlink:href="#linear-gradient"/>
    <linearGradient id="linear-gradient-3" x1="-0.243" y1="0.049" x2="1.219" y2="0.958" xlink:href="#linear-gradient"/>
  </defs>
  <g id="Camada_x0020_1" transform="translate(-0.001)">
    <g id="_696067080" transform="translate(0 0)">
      <g id="Grupo_216" data-name="Grupo 216" transform="matrix(1, 0.002, -0.002, 1, 0.004, 622.639)">
        <text id="P" transform="translate(0 1)" fill="#fefefe" font-size="1" font-family="SegoeUI, Segoe UI"><tspan x="0" y="0">P</tspan></text>
        <text id="r" transform="translate(142.946 1)" fill="#fefefe" font-size="1" font-family="SegoeUI, Segoe UI"><tspan x="0" y="0">r</tspan></text>
        <text id="i" transform="translate(232.841 1)" fill="#fefefe" font-size="1" font-family="SegoeUI, Segoe UI"><tspan x="0" y="0">i</tspan></text>
        <text id="m" transform="translate(296.273 1)" fill="#fefefe" font-size="1" font-family="SegoeUI, Segoe UI"><tspan x="0" y="0">m</tspan></text>
        <text id="o" transform="translate(514.553 1)" fill="#fefefe" font-size="1" font-family="SegoeUI, Segoe UI"><tspan x="0" y="0">o</tspan></text>
        <text id="r-2" data-name="r" transform="translate(663.956 1)" fill="#fefefe" font-size="1" font-family="SegoeUI, Segoe UI"><tspan x="0" y="0">r</tspan></text>
        <text id="a" transform="translate(753.851 1)" fill="#fefefe" font-size="1" font-family="SegoeUI, Segoe UI"><tspan x="0" y="0">a</tspan></text>
      </g>
      <text id="S" transform="translate(460.244 779.994)" fill="#fefefe" font-size="1" font-family="SegoeUI, Segoe UI"><tspan x="0" y="0">S</tspan></text>
      <text id="o-2" data-name="o" transform="translate(519.879 779.994)" fill="#fefefe" font-size="1" font-family="SegoeUI, Segoe UI"><tspan x="0" y="0">o</tspan></text>
      <text id="l" transform="translate(585.464 779.994)" fill="#fefefe" font-size="1" font-family="SegoeUI, Segoe UI"><tspan x="0" y="0">l</tspan></text>
      <text id="u" transform="translate(614.078 779.994)" fill="#fefefe" font-size="1" font-family="SegoeUI, Segoe UI"><tspan x="0" y="0">u</tspan></text>
      <text id="t" transform="translate(677.511 779.994)" fill="#fefefe" font-size="1" font-family="SegoeUI, Segoe UI"><tspan x="0" y="0">t</tspan></text>
      <text id="i-2" data-name="i" transform="translate(716.508 779.994)" fill="#fefefe" font-size="1" font-family="SegoeUI, Segoe UI"><tspan x="0" y="0">i</tspan></text>
      <text id="o-3" data-name="o" transform="translate(745.122 779.994)" fill="#fefefe" font-size="1" font-family="SegoeUI, Segoe UI"><tspan x="0" y="0">o</tspan></text>
      <text id="n" transform="translate(810.708 779.994)" fill="#fefefe" font-size="1" font-family="SegoeUI, Segoe UI"><tspan x="0" y="0">n</tspan></text>
      <g id="Grupo_217" data-name="Grupo 217" transform="translate(221.767)">
        <path id="Caminho_139" data-name="Caminho 139" d="M4882.856,3093.74l.633-.253c1.646-.506-.887.127.633-.126l4.179-.253c6.2-.253,7.217,1.013,6.33-5.317-.253-2.153-.126-4.432-.253-6.584-2.532-50.9,24.689-101.543,64.319-130.031,7.47-5.318,15.32-11.015,24.31-15.067,20.891-9.749,38.87-15.573,62.926-16.713,11.142-.506,25.7-.38,36.084,2.406,5.444,1.393,9.749,1.772,15.573,3.8,4.938,1.772,9.369,3.165,14.181,5.318,20.385,8.863,41.276,24.436,56.216,41.4,2.912,3.292,5.951,7.47,8.736,10.889a125.056,125.056,0,0,1,8.1,11.521c2.659,4.052,4.811,8.1,7.217,12.535,4.811,8.61,8.1,17.6,11.648,27.855.633,1.9,1.772,5.7,2.785,6.963a5.875,5.875,0,0,0,6.964,1.646c5.7-2.532,2.152-9.369.507-14.307-2.533-7.6-1.393-5.951-5.064-14.813-1.773-4.052-4.432-9.5-6.458-13.168-13.8-25.069-30.894-46.34-54.57-63.306-14.687-10.509-32.54-20.385-52.544-25.449a152.058,152.058,0,0,0-15.827-3.418c-5.951-.76-11.4-1.266-17.6-1.646-11.142-.633-26.588.253-37.1,2.406-5.824,1.139-10.636,2.152-16.333,3.672-7.851,1.9-20.638,6.964-28.615,10.889a173.807,173.807,0,0,0-24.689,14.687c-1.9,1.266-3.671,2.659-5.571,4.052-3.292,2.532-12.788,11.268-15.7,13.927A93.024,93.024,0,0,0,4924,2967.38a166.467,166.467,0,0,0-36.717,70.27c-1.519,6.457-3.8,18.739-4.052,24.943-.126,2.912-.253,6.584-.506,9.5-.253,3.039-.127,6.2-.253,9.369a64.219,64.219,0,0,1-7.344,1.013c-3.925.253-15.953,3.8-19.5,5.318-18.612,7.85-34.312,20-44.314,37.73a95.858,95.858,0,0,0-5.318,10.889c-3.292,9.5-4.685,12.788-5.571,22.917-.633,7.47-1.646,10.635-.253,18.739a35.764,35.764,0,0,1,.253,3.8,22.517,22.517,0,0,1,.633,3.545,12.344,12.344,0,0,0,.76,3.545c.253,1.773.506,1.773.759,3.419,1.52,7.47,6.331,17.219,10.129,23.043,7.977,12.155,22.03,24.31,36.084,29.248a87.832,87.832,0,0,0,26.715,5.571c5.7.38,10-.253,15.7-.38l48.873-.76c87.236-1.646,174.092-2.532,261.455-4.3,49.125-1.013,98-1.52,147.124-2.406,5.064-.127,11.4-.506,16.206-.127l28.108-.127c1.393-.126,1.772-.633,3.292-.76,21.9-1.9,39.123-19.5,43.808-38.237,8.1-32.033-14.308-59.254-44.567-67.231-11.269-2.912-18.612-2.279-30.261-2.026-7.724.126-8.483,5.191-6.837,8.1,2.279,3.925,8.229,2.786,13.421,2.786,11.142-.127,18.738.886,27.728,4.558a51.705,51.705,0,0,1,26.082,23.043c10.889,20.638.886,45.2-18.359,54.19-11.269,5.318-15.7,3.672-28.741,3.925-43.3,1.013-87.236,1.393-130.411,2.153l-65.206,1.139c-21.9.38-43.175.38-65.205.76-21.777.38-43.682.886-65.459,1.266s-43.175.38-64.826.76l-98.251,1.9c-10.762.253-21.144.759-30.26-2.279q-37.6-12.724-46.593-51.785c-3.925-16.966.38-38.87,9.243-53.177a110.447,110.447,0,0,1,10.382-13.927c1.393-1.393,3.039-2.659,4.431-4.052,8.356-7.977,20.638-14.434,32.033-17.346,2.913-.76,11.648-2.786,14.561-2.152Z" transform="translate(-4799.479 -2907.419)" fill-rule="evenodd" fill="url(#linear-gradient)"/>
        <path id="Caminho_140" data-name="Caminho 140" d="M8203.731,3360.99c-11.775.253-21.145,2.785-31.78,5.318-3.545.886-6.2,1.9-9.5,2.785-6.458,1.773-4.685,1.646-8.99,3.292-3.165,1.266-6.077,2.279-5.7,6.584.38,3.418,2.912,5.191,6.964,4.685,4.685-.633,3.545-1.266,9.116-3.165,11.269-3.672,30.007-8.23,41.4-8.23a98.662,98.662,0,0,1,39.629,8.609,104.4,104.4,0,0,1,22.538,13.8,68.778,68.778,0,0,1,6.2,5.951c6.584,6.331,6.331,5.824,11.648,12.788a88.763,88.763,0,0,1,9.5,15.067c8.1,15.827,11.648,31.906,11.016,50.645-.127,4.3-.634,7.6,2.405,9.5a5.435,5.435,0,0,0,8.1-2.659c.633-1.773,1.013-8.736,1.013-10.889a123.3,123.3,0,0,0-3.292-28.361c-1.646-7.344-4.685-14.054-7.6-20.511-17.219-37.351-57.355-66.219-102.81-65.332Z" transform="translate(-7723.804 -3303.434)" fill-rule="evenodd" fill="url(#linear-gradient-2)"/>
        <path id="Caminho_141" data-name="Caminho 141" d="M5458,4291.661l11.521-.38a3.914,3.914,0,0,0,1.14-2.405,33.408,33.408,0,0,0-.253-3.545c-.127-1.519.633-5.571-.76-6.331a57.083,57.083,0,0,0,.253,6.584c.886,6.331-.127,5.064-6.331,5.317l-4.178.253c-1.52.253,1.013-.379-.633.126l-.633.253Z" transform="translate(-5374.623 -4105.341)" fill-rule="evenodd" fill="url(#linear-gradient-3)"/>
      </g>
    </g>
  </g>
</svg>
