<svg xmlns="http://www.w3.org/2000/svg" width="856.147" height="779.221" viewBox="0 0 856.147 779.221">
  <g id="Camada_x0020_1" transform="translate(-0.001)">
    <g id="_697706688" transform="translate(0 0)">
      <g id="Grupo_212" data-name="Grupo 212" transform="matrix(1, 0.002, -0.002, 1, 0.004, 620.876)">
        <text id="P" transform="translate(0 1)" fill="#373435" font-size="1" font-family="SegoeUI, Segoe UI"><tspan x="0" y="0">P</tspan></text>
        <text id="r" transform="translate(142.946 1)" fill="#373435" font-size="1" font-family="SegoeUI, Segoe UI"><tspan x="0" y="0">r</tspan></text>
        <text id="i" transform="translate(232.841 1)" fill="#373435" font-size="1" font-family="SegoeUI, Segoe UI"><tspan x="0" y="0">i</tspan></text>
        <text id="m" transform="translate(296.273 1)" fill="#373435" font-size="1" font-family="SegoeUI, Segoe UI"><tspan x="0" y="0">m</tspan></text>
        <text id="o" transform="translate(514.553 1)" fill="#373435" font-size="1" font-family="SegoeUI, Segoe UI"><tspan x="0" y="0">o</tspan></text>
        <text id="r-2" data-name="r" transform="translate(663.956 1)" fill="#373435" font-size="1" font-family="SegoeUI, Segoe UI"><tspan x="0" y="0">r</tspan></text>
        <text id="a" transform="translate(753.851 1)" fill="#373435" font-size="1" font-family="SegoeUI, Segoe UI"><tspan x="0" y="0">a</tspan></text>
      </g>
      <text id="S" transform="translate(460.244 778.221)" fill="#373435" font-size="1" font-family="SegoeUI, Segoe UI"><tspan x="0" y="0">S</tspan></text>
      <text id="o-2" data-name="o" transform="translate(519.879 778.221)" fill="#373435" font-size="1" font-family="SegoeUI, Segoe UI"><tspan x="0" y="0">o</tspan></text>
      <text id="l" transform="translate(585.464 778.221)" fill="#373435" font-size="1" font-family="SegoeUI, Segoe UI"><tspan x="0" y="0">l</tspan></text>
      <text id="u" transform="translate(614.078 778.221)" fill="#373435" font-size="1" font-family="SegoeUI, Segoe UI"><tspan x="0" y="0">u</tspan></text>
      <text id="t" transform="translate(677.511 778.221)" fill="#373435" font-size="1" font-family="SegoeUI, Segoe UI"><tspan x="0" y="0">t</tspan></text>
      <text id="i-2" data-name="i" transform="translate(716.508 778.221)" fill="#373435" font-size="1" font-family="SegoeUI, Segoe UI"><tspan x="0" y="0">i</tspan></text>
      <text id="o-3" data-name="o" transform="translate(745.122 778.221)" fill="#373435" font-size="1" font-family="SegoeUI, Segoe UI"><tspan x="0" y="0">o</tspan></text>
      <text id="n" transform="translate(810.708 778.221)" fill="#373435" font-size="1" font-family="SegoeUI, Segoe UI"><tspan x="0" y="0">n</tspan></text>
      <g id="Grupo_213" data-name="Grupo 213" transform="translate(216.322)">
        <path id="Caminho_133" data-name="Caminho 133" d="M4619.35,3100.853l.633-.253c1.646-.506-.886.126.633-.126l4.178-.253c6.2-.253,7.217,1.013,6.331-5.191-.253-2.152-.126-4.431-.253-6.584-2.532-50.645,24.563-101.164,64.192-129.525,7.471-5.317,15.32-10.889,24.184-15.067,20.891-9.623,38.616-15.573,62.673-16.586,11.016-.506,25.576-.38,35.958,2.279,5.444,1.393,9.749,1.773,15.573,3.8,4.938,1.773,9.369,3.166,14.181,5.191,20.385,8.736,41.149,24.436,55.963,41.276,2.785,3.292,5.951,7.47,8.736,10.889a125.15,125.15,0,0,1,8.1,11.522c2.659,4.052,4.685,8.1,7.217,12.535,4.811,8.61,8.1,17.6,11.648,27.728.633,1.9,1.772,5.571,2.786,6.964a5.74,5.74,0,0,0,6.837,1.646c5.7-2.532,2.152-9.369.506-14.18-2.532-7.47-1.393-5.951-5.064-14.687-1.646-4.052-4.431-9.37-6.458-13.168-13.8-24.943-30.767-46.087-54.316-63.053-14.687-10.509-32.413-20.258-52.291-25.323a151.941,151.941,0,0,0-15.827-3.418c-5.951-.76-11.4-1.266-17.472-1.646-11.143-.633-26.462.253-36.971,2.406-5.7,1.14-10.635,2.153-16.333,3.672a154.533,154.533,0,0,0-28.488,10.889,176.673,176.673,0,0,0-24.563,14.56c-1.9,1.266-3.671,2.659-5.571,4.052-3.292,2.532-12.661,11.142-15.573,13.927a120.631,120.631,0,0,0-9.749,10,166.044,166.044,0,0,0-36.591,70.017c-1.519,6.457-3.8,18.739-4.051,24.816-.127,2.912-.253,6.457-.507,9.5s-.126,6.078-.253,9.37a64.15,64.15,0,0,1-7.344,1.013c-3.925.253-15.827,3.8-19.5,5.318-18.612,7.723-34.186,19.878-44.188,37.6a95.936,95.936,0,0,0-5.318,10.889c-3.292,9.5-4.685,12.788-5.571,22.79-.633,7.47-1.646,10.636-.253,18.739a35.764,35.764,0,0,1,.253,3.8,22.465,22.465,0,0,1,.633,3.545,20.084,20.084,0,0,0,.633,3.545c.253,1.773.506,1.773.76,3.418,1.52,7.47,6.331,17.093,10.129,22.917,7.977,12.155,22.03,24.183,35.958,29.248a86.224,86.224,0,0,0,26.715,5.571c5.7.38,9.875-.253,15.7-.38l48.619-.76c86.983-1.646,173.459-2.406,260.442-4.3,49-1.013,97.618-1.519,146.491-2.406,5.064-.127,11.269-.507,16.207-.127l27.981-.126c1.393-.126,1.772-.633,3.292-.76,21.9-1.9,39-19.5,43.681-38.11,7.977-31.906-14.307-59-44.314-66.978-11.142-2.912-18.612-2.152-30.134-2.026-7.723.127-8.482,5.191-6.837,8.1,2.279,3.925,8.23,2.786,13.421,2.786,11.142-.126,18.739.886,27.6,4.558,11.016,4.558,20.638,12.788,25.956,22.917,10.889,20.511.886,44.947-18.359,53.937-11.269,5.318-15.573,3.672-28.741,3.925-43.175,1.013-86.856,1.393-129.9,2.152l-64.952,1.14c-21.9.38-42.922.38-64.952.76-21.777.38-43.555.886-65.332,1.266-21.651.38-43.048.38-64.7.76l-97.871,1.9c-10.762.253-21.018.76-30.134-2.279-25.069-8.356-40.389-25.576-46.34-51.658-3.8-16.839.379-38.743,9.243-53.051,2.279-3.671,7.217-10.762,10.382-13.927,1.393-1.393,3.039-2.659,4.3-3.925,8.23-7.977,20.511-14.434,31.906-17.346,2.912-.76,11.648-2.785,14.561-2.153Z" transform="translate(-4536.479 -2915.419)" fill="#373435" fill-rule="evenodd"/>
        <path id="Caminho_134" data-name="Caminho 134" d="M7927.312,3364.989c-11.648.253-21.017,2.785-31.653,5.318-3.545.886-6.2,1.9-9.5,2.786-6.457,1.772-4.685,1.646-8.989,3.292-3.166,1.266-6.077,2.279-5.571,6.584.38,3.292,2.912,5.191,6.964,4.685,4.685-.633,3.545-1.266,9.116-3.166,11.269-3.672,29.881-8.23,41.149-8.23a98.075,98.075,0,0,1,39.5,8.61,107.55,107.55,0,0,1,22.537,13.8,68.879,68.879,0,0,1,6.2,5.951c6.583,6.331,6.331,5.824,11.648,12.661a102.691,102.691,0,0,1,9.5,14.94c7.977,15.827,11.521,31.78,11.015,50.392-.127,4.3-.633,7.6,2.405,9.5a5.435,5.435,0,0,0,8.1-2.659c.633-1.772,1.013-8.736,1.013-10.889a122.975,122.975,0,0,0-3.292-28.235,95.341,95.341,0,0,0-7.6-20.385c-17.219-37.224-57.229-65.965-102.43-65.079Z" transform="translate(-7449.284 -3307.94)" fill="#373435" fill-rule="evenodd"/>
        <path id="Caminho_135" data-name="Caminho 135" d="M5191,4292.661l11.4-.38a3.911,3.911,0,0,0,1.14-2.405,33.409,33.409,0,0,0-.253-3.545c-.126-1.519.633-5.571-.76-6.331a57.194,57.194,0,0,0,.254,6.584c.886,6.331-.127,5.064-6.331,5.191l-4.178.253c-1.52.253,1.013-.38-.633.126l-.633.253Z" transform="translate(-5108.129 -4107.227)" fill="#373435" fill-rule="evenodd"/>
      </g>
    </g>
  </g>
</svg>
