<svg xmlns="http://www.w3.org/2000/svg" xmlns:xlink="http://www.w3.org/1999/xlink" width="804.344" height="234.361" viewBox="0 0 804.344 234.361">
  <defs>
    <linearGradient id="linear-gradient" x1="-0.088" y1="-0.185" x2="1.081" y2="1.174" gradientUnits="objectBoundingBox">
      <stop offset="0" stop-color="#ff2626"/>
      <stop offset="0.529" stop-color="#d51392"/>
      <stop offset="1" stop-color="#ab00ff"/>
    </linearGradient>
    <linearGradient id="linear-gradient-2" x1="-0.099" y1="0.014" x2="1.101" y2="0.996" xlink:href="#linear-gradient"/>
    <linearGradient id="linear-gradient-3" x1="-0.243" y1="0.048" x2="1.219" y2="0.958" xlink:href="#linear-gradient"/>
  </defs>
  <g id="Camada_x0020_1" transform="translate(1105.201 177.65)">
    <text id="Solution" transform="translate(-556.201 45.711)" fill="#2c2a2a" font-size="60" font-family="Graphik-Regular, Graphik" letter-spacing="0.02em"><tspan x="0" y="0">Solution</tspan></text>
    <text id="Primora" transform="translate(-1105.201 3.711)" fill="#2c2a2a" font-size="132" font-family="Graphik-Regular, Graphik" letter-spacing="0.01em"><tspan x="0" y="0">Primora</tspan></text>
    <g id="_394433416" transform="translate(-563.008 -177.651)">
      <g id="Grupo_14" data-name="Grupo 14" transform="translate(0 0)">
        <path id="Caminho_24" data-name="Caminho 24" d="M4833.5,2983.474l.258-.1c.675-.205-.361.05.259-.053l1.707-.1c2.53-.1,2.943.408,2.584-2.17-.105-.88-.054-1.808-.105-2.688-1.035-20.775,10.079-41.448,26.256-53.073a59.366,59.366,0,0,1,9.924-6.149,63.851,63.851,0,0,1,25.685-6.822,53.674,53.674,0,0,1,14.73.981c2.218.567,3.979.726,6.357,1.552,2.011.723,3.818,1.291,5.781,2.17a68.751,68.751,0,0,1,22.95,16.9c1.19,1.344,2.427,3.049,3.567,4.444a50.563,50.563,0,0,1,3.3,4.7c1.089,1.653,1.965,3.309,2.946,5.115a68.642,68.642,0,0,1,4.753,11.369,13.171,13.171,0,0,0,1.139,2.844,2.41,2.41,0,0,0,2.849.672c2.322-1.032.876-3.824.2-5.84a49.779,49.779,0,0,0-2.066-6.046c-.725-1.653-1.812-3.878-2.639-5.375a75.4,75.4,0,0,0-22.277-25.842,64.761,64.761,0,0,0-21.447-10.388,61.1,61.1,0,0,0-6.458-1.395c-2.434-.312-4.65-.517-7.186-.672a66.979,66.979,0,0,0-15.144.982c-2.376.463-4.341.878-6.663,1.5a69.242,69.242,0,0,0-11.685,4.445,71.123,71.123,0,0,0-10.08,6c-.773.514-1.494,1.084-2.27,1.653-1.348,1.035-5.223,4.6-6.41,5.684a38.112,38.112,0,0,0-4.032,4.134,67.917,67.917,0,0,0-14.983,28.684,71.431,71.431,0,0,0-1.657,10.182c-.05,1.188-.1,2.688-.2,3.878-.105,1.239-.053,2.535-.105,3.826a26.5,26.5,0,0,1-3,.409,42,42,0,0,0-7.961,2.17,36.182,36.182,0,0,0-18.089,15.4,38.815,38.815,0,0,0-2.169,4.442,30.485,30.485,0,0,0-2.273,9.355,23.547,23.547,0,0,0-.1,7.649,14.179,14.179,0,0,1,.1,1.552,8.942,8.942,0,0,1,.256,1.445,5.139,5.139,0,0,0,.312,1.448c.1.723.205.723.309,1.4a31.129,31.129,0,0,0,18.869,21.346,35.855,35.855,0,0,0,10.9,2.273c2.326.155,4.081-.1,6.407-.154l19.949-.312c35.608-.671,71.063-1.035,106.725-1.756,20.054-.406,40.01-.611,60.054-.98,2.069-.053,4.652-.2,6.618-.053l11.476-.053c.566-.052.721-.259,1.34-.31a20.987,20.987,0,0,0,17.884-15.606c3.313-13.077-5.838-24.187-18.192-27.442a39.391,39.391,0,0,0-12.35-.83c-3.153.053-3.471,2.12-2.791,3.311.932,1.6,3.358,1.136,5.479,1.136a26.522,26.522,0,0,1,11.317,1.857,21.125,21.125,0,0,1,10.646,9.408,16.269,16.269,0,0,1-7.5,22.118c-4.6,2.172-6.406,1.5-11.734,1.6-17.674.409-35.607.569-53.234.876l-26.612.468c-8.94.154-17.627.154-26.618.309-8.888.155-17.831.362-26.724.517s-17.624.156-26.458.312l-40.106.776a37.033,37.033,0,0,1-12.354-.932,27.407,27.407,0,0,1-19.017-21.139,31.4,31.4,0,0,1,3.773-21.705,45.376,45.376,0,0,1,4.24-5.686c.567-.569,1.238-1.085,1.812-1.655a30.989,30.989,0,0,1,13.074-7.08,21.479,21.479,0,0,1,5.942-.88Z" transform="translate(-4799.486 -2907.422)" fill-rule="evenodd" fill="url(#linear-gradient)"/>
        <path id="Caminho_25" data-name="Caminho 25" d="M8170.292,3360.9a57.144,57.144,0,0,0-12.8,2.155c-1.422.358-2.5.77-3.824,1.128a19.132,19.132,0,0,0-3.629,1.333c-1.273.513-2.445.925-2.295,2.668.152,1.388,1.178,2.1,2.8,1.9,1.883-.258,1.428-.512,3.674-1.285a66.024,66.024,0,0,1,16.678-3.333,39.581,39.581,0,0,1,15.969,3.489,41.86,41.86,0,0,1,9.072,5.594,26.4,26.4,0,0,1,2.5,2.412,29.891,29.891,0,0,1,4.7,5.181,36.658,36.658,0,0,1,3.822,6.109,40.458,40.458,0,0,1,4.43,20.526c-.049,1.742-.248,3.079.975,3.85a2.173,2.173,0,0,0,1.889.259,2.212,2.212,0,0,0,1.373-1.337,24.574,24.574,0,0,0,.4-4.414,50.07,50.07,0,0,0-1.33-11.5,43.218,43.218,0,0,0-3.062-8.308,45.575,45.575,0,0,0-41.412-26.483Z" transform="translate(-7974.749 -3335.325)" fill-rule="evenodd" fill="url(#linear-gradient-2)"/>
        <path id="Caminho_26" data-name="Caminho 26" d="M5458,4281.947l2.679-.089a.915.915,0,0,0,.269-.559c-.009-.275-.028-.554-.061-.825-.029-.352.149-1.3-.177-1.478a13.623,13.623,0,0,0,.061,1.534c.2,1.477-.029,1.182-1.479,1.237l-.972.059c-.35.061.233-.085-.146.031l-.146.059Z" transform="translate(-5438.579 -4206.957)" fill-rule="evenodd" fill="url(#linear-gradient-3)"/>
      </g>
    </g>
  </g>
</svg>
