<svg xmlns="http://www.w3.org/2000/svg" xmlns:xlink="http://www.w3.org/1999/xlink" width="184.273" height="44.388" viewBox="0 0 184.273 44.388">
  <defs>
    <linearGradient id="linear-gradient" x1="-0.088" y1="-0.185" x2="1.081" y2="1.174" gradientUnits="objectBoundingBox">
      <stop offset="0" stop-color="#ff2626"/>
      <stop offset="0.529" stop-color="#d51392"/>
      <stop offset="1" stop-color="#ab00ff"/>
    </linearGradient>
    <linearGradient id="linear-gradient-2" x1="-0.099" y1="0.014" x2="1.101" y2="0.996" xlink:href="#linear-gradient"/>
    <linearGradient id="linear-gradient-3" x1="-0.243" y1="0.048" x2="1.219" y2="0.958" xlink:href="#linear-gradient"/>
  </defs>
  <g id="Camada_x0020_1" transform="translate(12.474 -20.856)">
    <text id="Solution" transform="translate(67.799 61.856)" fill="#2c2a2a" font-size="14" font-family="Graphik-Regular, Graphik" letter-spacing="0.02em"><tspan x="0" y="0">Solution</tspan></text>
    <text id="Primora" transform="translate(67.799 43.856)" fill="#2c2a2a" font-size="28" font-family="Graphik-Regular, Graphik" letter-spacing="0.01em"><tspan x="0" y="0">Primora</tspan></text>
    <g id="_394433416" transform="translate(-12.474 25.564)">
      <g id="Grupo_14" data-name="Grupo 14" transform="translate(0 0)">
        <path id="Caminho_24" data-name="Caminho 24" d="M4809.129,2928.98l.073-.029c.191-.058-.1.014.073-.015l.484-.029c.717-.029.834.116.732-.615-.03-.25-.015-.512-.03-.762a18.038,18.038,0,0,1,7.443-15.045,16.834,16.834,0,0,1,2.813-1.743,18.1,18.1,0,0,1,7.281-1.934,15.212,15.212,0,0,1,4.175.278c.629.161,1.128.206,1.8.44.57.2,1.083.366,1.64.615a19.487,19.487,0,0,1,6.5,4.791c.337.381.688.864,1.011,1.26a14.243,14.243,0,0,1,.937,1.331c.309.469.557.938.835,1.45a19.5,19.5,0,0,1,1.347,3.223,3.717,3.717,0,0,0,.323.806.683.683,0,0,0,.807.19c.658-.293.249-1.084.058-1.656a14.035,14.035,0,0,0-.586-1.714c-.206-.469-.514-1.1-.748-1.524a21.378,21.378,0,0,0-6.315-7.325,18.366,18.366,0,0,0-6.08-2.945,17.547,17.547,0,0,0-1.831-.4c-.689-.088-1.318-.146-2.037-.19a18.966,18.966,0,0,0-4.293.278c-.673.132-1.23.249-1.889.425a19.623,19.623,0,0,0-3.312,1.26,20.162,20.162,0,0,0-2.857,1.7c-.22.146-.424.307-.644.469-.382.293-1.48,1.3-1.817,1.611a10.681,10.681,0,0,0-1.143,1.172,19.256,19.256,0,0,0-4.248,8.131,20.318,20.318,0,0,0-.469,2.886c-.014.337-.029.762-.058,1.1s-.015.719-.03,1.084a7.478,7.478,0,0,1-.849.116,11.91,11.91,0,0,0-2.257.615,10.258,10.258,0,0,0-5.128,4.365,11.178,11.178,0,0,0-.615,1.26,8.668,8.668,0,0,0-.645,2.652,6.7,6.7,0,0,0-.029,2.168,3.887,3.887,0,0,1,.029.439,2.592,2.592,0,0,1,.073.41,1.422,1.422,0,0,0,.088.41c.029.2.058.2.088.4a8.822,8.822,0,0,0,5.348,6.051,10.169,10.169,0,0,0,3.091.645c.66.044,1.157-.03,1.817-.044l5.654-.088c10.094-.19,20.145-.293,30.253-.5,5.685-.115,11.341-.174,17.023-.278.586-.015,1.318-.058,1.876-.015l3.252-.015c.161-.015.2-.073.38-.088a5.949,5.949,0,0,0,5.069-4.424c.939-3.707-1.655-6.856-5.158-7.779a11.171,11.171,0,0,0-3.5-.235c-.894.015-.984.6-.792.938.264.454.952.322,1.553.322a7.518,7.518,0,0,1,3.208.526,5.985,5.985,0,0,1,3.018,2.667,4.611,4.611,0,0,1-2.124,6.27c-1.3.615-1.817.425-3.327.454-5.01.116-10.093.161-15.09.249l-7.544.132c-2.535.044-5,.044-7.545.088-2.519.044-5.054.1-7.575.146s-5,.044-7.5.088l-11.369.22a10.5,10.5,0,0,1-3.5-.264,7.768,7.768,0,0,1-5.391-5.992,8.9,8.9,0,0,1,1.069-6.153,12.947,12.947,0,0,1,1.2-1.612c.161-.162.351-.308.514-.469a8.789,8.789,0,0,1,3.706-2.007,6.1,6.1,0,0,1,1.685-.25Z" transform="translate(-4799.487 -2907.422)" fill-rule="evenodd" fill="url(#linear-gradient)"/>
        <path id="Caminho_25" data-name="Caminho 25" d="M8154.211,3360.859a16.526,16.526,0,0,0-3.678.615c-.408.1-.717.22-1.1.322a5.553,5.553,0,0,0-1.042.381c-.366.146-.7.264-.659.762.044.4.338.6.806.542.542-.073.41-.146,1.056-.367a19.053,19.053,0,0,1,4.79-.952,11.436,11.436,0,0,1,4.587,1,12.086,12.086,0,0,1,2.605,1.6,7.682,7.682,0,0,1,.718.689,8.5,8.5,0,0,1,1.35,1.479,10.359,10.359,0,0,1,1.1,1.744,11.492,11.492,0,0,1,1.272,5.86c-.014.5-.071.879.279,1.1a.628.628,0,0,0,.938-.308,6.987,6.987,0,0,0,.115-1.26,14.23,14.23,0,0,0-.382-3.281,12.369,12.369,0,0,0-.879-2.372,13.1,13.1,0,0,0-11.9-7.56Z" transform="translate(-8098.684 -3354.203)" fill-rule="evenodd" fill="url(#linear-gradient-2)"/>
        <path id="Caminho_26" data-name="Caminho 26" d="M5458,4280.462l1.331-.044a.456.456,0,0,0,.133-.277c0-.137-.014-.274-.03-.41-.014-.174.073-.645-.088-.733a6.73,6.73,0,0,0,.03.762c.1.732-.015.586-.734.614l-.482.029c-.173.03.116-.043-.073.015l-.073.03Z" transform="translate(-5448.357 -4258.907)" fill-rule="evenodd" fill="url(#linear-gradient-3)"/>
      </g>
    </g>
  </g>
</svg>
