<svg id="Camada_x0020_1" xmlns="http://www.w3.org/2000/svg" width="1691.888" height="468.707" viewBox="0 0 1691.888 468.707">
  <g id="_700524120" transform="translate(0 0)">
    <g id="Grupo_206" data-name="Grupo 206" transform="translate(1141.549)">
      <path id="Caminho_124" data-name="Caminho 124" d="M8817.178,4328.131l.514-.257c1.413-.386-.771.128.514-.129l3.6-.128c5.269-.128,6.168,1.028,5.525-4.369-.257-1.8,0-3.727-.128-5.654-1.285-43.688,22.872-86.606,57.438-110.378,6.554-4.5,13.363-9.123,21.073-12.464,18.118-7.967,33.537-12.721,54.226-13.235,9.509-.257,22.1.129,30.839,2.7,4.626,1.285,8.353,1.8,13.235,3.6,4.24,1.542,7.967,2.827,12.079,4.754,17.347,7.967,34.95,21.716,47.414,36.493,2.441,2.827,5.012,6.553,7.324,9.508s4.755,6.811,6.811,10.023c2.185,3.6,3.983,7.067,5.911,10.922,3.983,7.453,6.682,15.291,9.509,24.157.514,1.671,1.413,4.883,2.184,6.04a5.055,5.055,0,0,0,5.912,1.542c4.882-2.056,1.927-7.967.642-12.208-2.056-6.553-1.027-5.14-4.111-12.721-1.414-3.47-3.6-8.224-5.269-11.436-11.437-21.716-25.7-40.219-45.616-55.253-12.464-9.252-27.627-17.989-44.588-22.744a114.57,114.57,0,0,0-13.492-3.212c-5.012-.771-9.766-1.285-15.034-1.671-9.509-.642-22.744-.257-31.867,1.414-5.011.9-9.123,1.67-14.135,2.827a140.238,140.238,0,0,0-24.8,8.866,152.947,152.947,0,0,0-21.459,12.079c-1.671,1.156-3.213,2.185-4.883,3.469-2.827,2.056-11.18,9.38-13.75,11.693a76.876,76.876,0,0,0-8.609,8.481,140.956,140.956,0,0,0-32.638,59.622c-1.413,5.525-3.6,16.062-3.983,21.33-.128,2.441-.257,5.654-.514,8.1-.257,2.7-.257,5.269-.386,8.1a49.537,49.537,0,0,1-6.3.771c-3.341.128-13.749,2.956-16.833,4.24-16.19,6.425-29.812,16.448-38.678,31.482a70.039,70.039,0,0,0-4.754,9.251c-3.084,8.1-4.24,10.922-5.14,19.531-.643,6.425-1.671,9.124-.515,16.062.129,1.028,0,2.185.129,3.213.128,1.285.386,1.413.514,2.955.129,1.8.386,1.8.514,3.084.258,1.542.386,1.542.644,2.956,1.156,6.424,5.14,14.905,8.352,19.917,6.682,10.537,18.5,21.2,30.325,25.828a72.878,72.878,0,0,0,22.872,5.268c4.883.386,8.481-.128,13.492-.128l41.89.257c74.785.129,149.313.9,224.226.9,42.146,0,84.037.386,126.184.514,4.368,0,9.766-.257,13.877.128l24.029.386a18.377,18.377,0,0,1,2.827-.514c18.889-1.156,33.923-16.062,38.292-32,7.452-27.37-11.309-51.142-37.008-58.466-9.637-2.7-15.934-2.184-25.827-2.184-6.682,0-7.324,4.369-6.039,6.81,1.8,3.341,6.938,2.57,11.436,2.7,9.509.129,16.062,1.157,23.644,4.369a44.323,44.323,0,0,1,21.973,20.174c9,17.861,0,38.677-16.7,46.13-9.766,4.369-13.492,2.827-24.8,2.827-37.136,0-74.785-.386-111.792-.514-18.632,0-37.264-.128-55.9-.128-18.761-.128-37.007-.385-55.9-.385-18.761,0-37.521,0-56.153-.128-18.632,0-37.007-.386-55.639-.514l-84.293-.128c-9.252,0-18.118.257-25.828-2.57q-32-11.564-39.062-45.23c-2.955-14.52,1.027-33.28,8.866-45.487a99.99,99.99,0,0,1,9.123-11.822c1.156-1.157,2.569-2.185,3.854-3.341,7.2-6.682,17.99-12.079,27.756-14.263,2.441-.514,10.022-2.185,12.592-1.542Z" transform="translate(-8743.925 -4171.714)" fill="#373435" fill-rule="evenodd"/>
      <path id="Caminho_125" data-name="Caminho 125" d="M11651.064,4582.257c-10.022,0-18.117,2.056-27.241,3.983-3.083.643-5.4,1.542-8.224,2.313-5.525,1.414-3.983,1.414-7.709,2.7-2.7,1.028-5.27,1.8-5.012,5.525.257,2.827,2.441,4.5,5.911,4.111,3.983-.385,3.083-1.028,7.838-2.57,9.766-2.956,25.827-6.553,35.593-6.425a84.8,84.8,0,0,1,33.795,8.1,90.305,90.305,0,0,1,19.146,12.336c1.8,1.542,3.6,3.469,5.268,5.14,5.525,5.525,5.4,5.14,9.766,11.179a75.249,75.249,0,0,1,7.839,13.106c6.682,13.75,9.38,27.5,8.608,43.56-.257,3.727-.643,6.554,1.928,8.224a4.7,4.7,0,0,0,7.067-2.185c.643-1.414,1.028-7.453,1.028-9.38a109.268,109.268,0,0,0-2.313-24.414c-1.284-6.425-3.726-12.207-6.167-17.732-14.135-32.381-48.059-57.695-86.992-57.823Z" transform="translate(-11235.499 -4529.28)" fill="#373435" fill-rule="evenodd"/>
      <path id="Caminho_126" data-name="Caminho 126" d="M9314,5316.665l9.895-.128a3.15,3.15,0,0,0,1.027-2.056,12.52,12.52,0,0,0-.257-3.084c-.128-1.413.643-4.754-.643-5.4.129,1.927-.128,3.855.129,5.654.642,5.4-.129,4.369-5.525,4.369l-3.6.129c-1.284.257.9-.257-.514.128l-.514.257Z" transform="translate(-9240.748 -5160.249)" fill="#373435" fill-rule="evenodd"/>
    </g>
    <text id="P" transform="translate(0 379.815)" fill="#373435" font-size="2" font-family="SegoeUI, Segoe UI"><tspan x="0" y="0">P</tspan></text>
    <text id="r" transform="translate(168.458 378.815)" fill="#373435" font-size="1" font-family="SegoeUI, Segoe UI"><tspan x="0" y="0">r</tspan></text>
    <text id="i" transform="translate(274.211 379.815)" fill="#373435" font-size="2" font-family="SegoeUI, Segoe UI"><tspan x="0" y="0">i</tspan></text>
    <text id="m" transform="translate(348.995 379.815)" fill="#373435" font-size="2" font-family="SegoeUI, Segoe UI"><tspan x="0" y="0">m</tspan></text>
    <text id="o" transform="translate(606.244 379.815)" fill="#373435" font-size="2" font-family="SegoeUI, Segoe UI"><tspan x="0" y="0">o</tspan></text>
    <text id="r-2" data-name="r" transform="translate(782.284 378.815)" fill="#373435" font-size="1" font-family="SegoeUI, Segoe UI"><tspan x="0" y="0">r</tspan></text>
    <text id="a" transform="translate(888.036 379.815)" fill="#373435" font-size="2" font-family="SegoeUI, Segoe UI"><tspan x="0" y="0">a</tspan></text>
    <text id="S" transform="translate(1158.135 467.707)" fill="#373435" font-size="2" font-family="SegoeUI, Segoe UI"><tspan x="0" y="0">S</tspan></text>
    <text id="o-2" data-name="o" transform="translate(1233.819 467.707)" fill="#373435" font-size="2" font-family="SegoeUI, Segoe UI"><tspan x="0" y="0">o</tspan></text>
    <text id="l" transform="translate(1316.956 467.707)" fill="#373435" font-size="2" font-family="SegoeUI, Segoe UI"><tspan x="0" y="0">l</tspan></text>
    <text id="u" transform="translate(1353.192 467.707)" fill="#373435" font-size="2" font-family="SegoeUI, Segoe UI"><tspan x="0" y="0">u</tspan></text>
    <text id="t" transform="translate(1433.63 466.707)" fill="#373435" font-size="1" font-family="SegoeUI, Segoe UI"><tspan x="0" y="0">t</tspan></text>
    <text id="i-2" data-name="i" transform="translate(1483.102 467.707)" fill="#373435" font-size="2" font-family="SegoeUI, Segoe UI"><tspan x="0" y="0">i</tspan></text>
    <text id="o-3" data-name="o" transform="translate(1519.466 467.707)" fill="#373435" font-size="2" font-family="SegoeUI, Segoe UI"><tspan x="0" y="0">o</tspan></text>
    <text id="n" transform="translate(1602.603 467.707)" fill="#373435" font-size="2" font-family="SegoeUI, Segoe UI"><tspan x="0" y="0">n</tspan></text>
  </g>
</svg>
