<svg id="Camada_x0020_1" xmlns="http://www.w3.org/2000/svg" xmlns:xlink="http://www.w3.org/1999/xlink" width="1693.721" height="469.469" viewBox="0 0 1693.721 469.469">
  <defs>
    <linearGradient id="linear-gradient" x1="-0.088" y1="-0.185" x2="1.081" y2="1.173" gradientUnits="objectBoundingBox">
      <stop offset="0" stop-color="#ff2626"/>
      <stop offset="0.529" stop-color="#d51392"/>
      <stop offset="1" stop-color="#ab00ff"/>
    </linearGradient>
    <linearGradient id="linear-gradient-2" x1="-0.1" y1="0.013" x2="1.099" y2="0.995" xlink:href="#linear-gradient"/>
    <linearGradient id="linear-gradient-3" x1="-0.248" y1="0.05" x2="1.223" y2="0.955" xlink:href="#linear-gradient"/>
  </defs>
  <g id="_697780528" transform="translate(0 0)">
    <text id="P" transform="translate(0 380.577)" fill="#ab00ff" font-size="2" font-family="SegoeUI, Segoe UI"><tspan x="0" y="0">P</tspan></text>
    <text id="r" transform="translate(168.33 379.577)" fill="#ab00ff" font-size="1" font-family="SegoeUI, Segoe UI"><tspan x="0" y="0">r</tspan></text>
    <text id="i" transform="translate(274.211 380.577)" fill="#ab00ff" font-size="2" font-family="SegoeUI, Segoe UI"><tspan x="0" y="0">i</tspan></text>
    <text id="m" transform="translate(348.995 380.577)" fill="#ab00ff" font-size="2" font-family="SegoeUI, Segoe UI"><tspan x="0" y="0">m</tspan></text>
    <text id="o" transform="translate(606.116 380.577)" fill="#ab00ff" font-size="2" font-family="SegoeUI, Segoe UI"><tspan x="0" y="0">o</tspan></text>
    <text id="r-2" data-name="r" transform="translate(782.156 379.577)" fill="#ab00ff" font-size="1" font-family="SegoeUI, Segoe UI"><tspan x="0" y="0">r</tspan></text>
    <text id="a" transform="translate(888.036 380.577)" fill="#ab00ff" font-size="2" font-family="SegoeUI, Segoe UI"><tspan x="0" y="0">a</tspan></text>
    <text id="S" transform="translate(1158.135 468.469)" fill="#ab00ff" font-size="2" font-family="SegoeUI, Segoe UI"><tspan x="0" y="0">S</tspan></text>
    <text id="o-2" data-name="o" transform="translate(1233.691 468.469)" fill="#ab00ff" font-size="2" font-family="SegoeUI, Segoe UI"><tspan x="0" y="0">o</tspan></text>
    <text id="l" transform="translate(1316.828 468.469)" fill="#ab00ff" font-size="2" font-family="SegoeUI, Segoe UI"><tspan x="0" y="0">l</tspan></text>
    <text id="u" transform="translate(1353.192 468.469)" fill="#ab00ff" font-size="2" font-family="SegoeUI, Segoe UI"><tspan x="0" y="0">u</tspan></text>
    <text id="t" transform="translate(1433.502 467.469)" fill="#ab00ff" font-size="1" font-family="SegoeUI, Segoe UI"><tspan x="0" y="0">t</tspan></text>
    <text id="i-2" data-name="i" transform="translate(1482.973 468.469)" fill="#ab00ff" font-size="2" font-family="SegoeUI, Segoe UI"><tspan x="0" y="0">i</tspan></text>
    <text id="o-3" data-name="o" transform="translate(1519.337 468.469)" fill="#ab00ff" font-size="2" font-family="SegoeUI, Segoe UI"><tspan x="0" y="0">o</tspan></text>
    <text id="n" transform="translate(1602.474 468.469)" fill="#ab00ff" font-size="2" font-family="SegoeUI, Segoe UI"><tspan x="0" y="0">n</tspan></text>
    <g id="Grupo_207" data-name="Grupo 207" transform="translate(1142.152)">
      <path id="Caminho_127" data-name="Caminho 127" d="M8815.365,4327.66l.514-.257c1.414-.385-.771.129.514-.128l3.6-.257c5.269-.128,6.168.9,5.4-4.5a41.087,41.087,0,0,1-.129-5.654c-2.185-43.688,21.2-87.249,55.253-111.663,6.426-4.625,13.235-9.38,20.816-12.978,17.99-8.352,33.281-13.363,54.1-14.263,9.508-.386,22.1-.257,30.967,2.056,4.626,1.156,8.353,1.542,13.364,3.341,4.24,1.542,7.967,2.7,12.207,4.5,17.476,7.582,35.465,21.074,48.314,35.594,2.441,2.827,5.14,6.425,7.452,9.38s4.884,6.682,6.939,9.894c2.313,3.469,4.111,7.067,6.168,10.793,4.111,7.453,6.938,15.163,10.022,23.9a36.867,36.867,0,0,0,2.313,6.04,4.9,4.9,0,0,0,5.91,1.413c4.883-2.184,1.8-8.095.386-12.335-2.185-6.553-1.157-5.14-4.369-12.721a115.027,115.027,0,0,0-5.525-11.308c-11.821-21.459-26.47-39.705-46.772-54.354-12.593-9.124-28.012-17.476-45.1-21.845a110.96,110.96,0,0,0-13.621-2.955c-5.14-.643-9.766-1.157-15.162-1.414a145.609,145.609,0,0,0-31.867,2.056c-5.012,1.028-9.123,1.928-14.006,3.084a141.008,141.008,0,0,0-24.543,9.38,153.5,153.5,0,0,0-21.2,12.593c-1.542,1.156-3.084,2.313-4.754,3.469-2.827,2.185-10.923,9.637-13.492,11.95a107.232,107.232,0,0,0-8.481,8.609,143.33,143.33,0,0,0-31.48,60.394c-1.285,5.525-3.342,16.062-3.47,21.458-.129,2.441-.257,5.654-.386,8.1-.257,2.7-.129,5.269-.257,8.1a49.638,49.638,0,0,1-6.3.9c-3.342.257-13.621,3.212-16.705,4.625-16.062,6.682-29.426,17.09-38.163,32.381a79.423,79.423,0,0,0-4.626,9.38c-2.827,8.224-4.112,11.051-4.754,19.66-.515,6.425-1.414,9.123-.258,16.062a26.975,26.975,0,0,0,.258,3.212c.128,1.285.514,1.413.514,2.955a14.111,14.111,0,0,0,.643,3.084c.257,1.542.385,1.542.643,2.956,1.284,6.425,5.4,14.777,8.737,19.789,6.811,10.408,18.889,20.816,30.968,25.185a74.585,74.585,0,0,0,23,4.754c4.883.257,8.481-.257,13.492-.386l41.891-.643c74.913-1.413,149.44-2.184,224.482-3.726,42.275-.9,84.164-1.285,126.312-2.056,4.368-.128,9.766-.385,14.006-.128l24.157-.128c1.156-.128,1.542-.514,2.827-.643,18.889-1.542,33.666-16.7,37.649-32.9,6.938-27.5-12.336-50.884-38.164-57.695-9.637-2.57-16.062-1.927-25.956-1.67-6.682.128-7.324,4.5-5.911,6.939,1.928,3.341,7.068,2.441,11.565,2.441,9.509,0,16.062.771,23.771,3.855a43.828,43.828,0,0,1,22.358,19.789c9.381,17.732.771,38.806-15.8,46.516-9.638,4.5-13.492,3.083-24.672,3.341-37.264.771-74.913,1.156-111.92,1.8-18.76.386-37.264.643-56.023,1.028-18.89.386-37.008.386-56.025.643l-56.281,1.156c-18.76.386-37.135.386-55.767.643l-84.422,1.67c-9.252.257-18.118.643-25.956-2.056-21.588-7.2-34.822-22.1-39.963-44.46-3.341-14.52.386-33.409,7.967-45.744a89.95,89.95,0,0,1,8.866-11.95c1.156-1.157,2.57-2.313,3.727-3.47,7.067-6.81,17.732-12.464,27.5-14.905,2.441-.643,10.022-2.441,12.593-1.8Z" transform="translate(-8743.614 -4167.784)" fill-rule="evenodd" fill="url(#linear-gradient)"/>
      <path id="Caminho_128" data-name="Caminho 128" d="M11625.8,4550.917c-10.151.128-18.118,2.441-27.241,4.626-3.084.771-5.4,1.67-8.224,2.441-5.525,1.542-3.984,1.414-7.71,2.827-2.7,1.028-5.269,1.927-4.883,5.654.257,2.827,2.569,4.5,5.911,3.983,3.982-.514,3.084-1.156,7.838-2.7,9.766-3.212,25.7-7.067,35.465-7.067a83.707,83.707,0,0,1,34.051,7.453,93.823,93.823,0,0,1,19.4,11.95c1.8,1.414,3.6,3.469,5.4,5.14,5.653,5.4,5.525,5.011,10.022,10.922a94.979,94.979,0,0,1,8.224,12.85,85.9,85.9,0,0,1,9.509,43.432c-.129,3.727-.515,6.554,2.056,8.224a4.655,4.655,0,0,0,6.939-2.312c.514-1.542.9-7.453.9-9.38a107.34,107.34,0,0,0-2.826-24.286c-1.414-6.3-3.983-12.079-6.554-17.6C11699.3,4574.946,11664.73,4550.274,11625.8,4550.917Z" transform="translate(-11213.531 -4501.675)" fill-rule="evenodd" fill="url(#linear-gradient-2)"/>
      <path id="Caminho_129" data-name="Caminho 129" d="M9302,5337.922l9.894-.385c.386-.643.9-.9.9-2.056a12.475,12.475,0,0,0-.257-3.084c-.128-1.413.515-4.754-.643-5.4.129,1.927-.128,3.855.129,5.654.771,5.4-.129,4.369-5.4,4.5l-3.6.257c-1.285.257.9-.257-.514.128l-.514.257Z" transform="translate(-9230.25 -5178.045)" fill-rule="evenodd" fill="url(#linear-gradient-3)"/>
    </g>
  </g>
</svg>
