<svg xmlns="http://www.w3.org/2000/svg" xmlns:xlink="http://www.w3.org/1999/xlink" width="145" height="134.041" viewBox="0 0 145 134.041">
  <defs>
    <linearGradient id="linear-gradient" x1="-0.088" y1="-0.185" x2="1.081" y2="1.174" gradientUnits="objectBoundingBox">
      <stop offset="0" stop-color="#ff2626"/>
      <stop offset="0.529" stop-color="#d51392"/>
      <stop offset="1" stop-color="#ab00ff"/>
    </linearGradient>
    <linearGradient id="linear-gradient-2" x1="-0.099" y1="0.014" x2="1.101" y2="0.996" xlink:href="#linear-gradient"/>
    <linearGradient id="linear-gradient-3" x1="-0.243" y1="0.048" x2="1.219" y2="0.958" xlink:href="#linear-gradient"/>
  </defs>
  <g id="Camada_x0020_1" transform="translate(918.201 348.33)">
    <text id="Solution" transform="translate(-844.201 -217.289)" fill="#2c2a2a" font-size="17" font-family="Graphik-Regular, Graphik" letter-spacing="0.02em"><tspan x="0" y="0">Solution</tspan></text>
    <text id="Primora" transform="translate(-918.201 -243.289)" fill="#2c2a2a" font-size="39" font-family="Graphik-Regular, Graphik" letter-spacing="0.01em"><tspan x="0" y="0">Primora</tspan></text>
    <g id="_394433416" transform="translate(-882.287 -348.331)">
      <g id="Grupo_14" data-name="Grupo 14" transform="translate(0 0)">
        <path id="Caminho_24" data-name="Caminho 24" d="M4813.582,2938.938l.106-.042c.279-.085-.149.021.107-.022l.707-.042c1.049-.043,1.22.169,1.071-.9-.044-.365-.022-.749-.044-1.114-.429-8.609,4.177-17.176,10.88-21.993a24.629,24.629,0,0,1,4.112-2.548,26.477,26.477,0,0,1,10.644-2.827,22.244,22.244,0,0,1,6.1.407c.919.235,1.648.3,2.635.643.833.3,1.582.535,2.4.9a28.489,28.489,0,0,1,9.51,7c.494.557,1.006,1.263,1.479,1.842a20.934,20.934,0,0,1,1.369,1.946c.451.685.814,1.371,1.221,2.12a28.426,28.426,0,0,1,1.97,4.711,5.493,5.493,0,0,0,.472,1.178,1,1,0,0,0,1.18.279c.963-.428.363-1.585.084-2.42a20.511,20.511,0,0,0-.856-2.505c-.3-.685-.751-1.607-1.093-2.228a31.244,31.244,0,0,0-9.232-10.708,26.827,26.827,0,0,0-8.887-4.3,25.311,25.311,0,0,0-2.676-.578c-1.008-.129-1.927-.214-2.978-.279a27.765,27.765,0,0,0-6.275.407c-.984.192-1.8.364-2.761.621a28.711,28.711,0,0,0-4.842,1.842,29.486,29.486,0,0,0-4.177,2.485c-.32.213-.619.449-.94.685-.559.429-2.164,1.906-2.656,2.355a15.753,15.753,0,0,0-1.671,1.713,28.141,28.141,0,0,0-6.209,11.886,29.451,29.451,0,0,0-.687,4.219c-.021.492-.042,1.114-.084,1.607-.044.513-.022,1.051-.044,1.585a11.044,11.044,0,0,1-1.242.17,17.4,17.4,0,0,0-3.3.9,14.994,14.994,0,0,0-7.5,6.382,16.027,16.027,0,0,0-.9,1.841,12.621,12.621,0,0,0-.942,3.877,9.743,9.743,0,0,0-.042,3.17,5.88,5.88,0,0,1,.042.643,3.6,3.6,0,0,1,.106.6,2.154,2.154,0,0,0,.129.6c.043.3.085.3.128.579a12.9,12.9,0,0,0,7.819,8.845,14.853,14.853,0,0,0,4.518.942c.964.064,1.691-.043,2.655-.064l8.268-.129c14.756-.278,29.447-.429,44.226-.728,8.31-.168,16.58-.253,24.886-.406.858-.022,1.928-.084,2.743-.022l4.755-.022c.234-.022.3-.107.555-.128a8.7,8.7,0,0,0,7.411-6.467c1.373-5.419-2.419-10.023-7.539-11.372a16.32,16.32,0,0,0-5.118-.344c-1.307.022-1.438.878-1.156,1.372.386.664,1.392.471,2.271.471a10.982,10.982,0,0,1,4.69.77,8.752,8.752,0,0,1,4.411,3.9,6.741,6.741,0,0,1-3.106,9.166c-1.906.9-2.655.622-4.863.664-7.324.17-14.755.236-22.06.363l-11.028.194c-3.7.064-7.3.064-11.031.128-3.683.065-7.389.15-11.074.214s-7.3.064-10.964.129l-16.62.322a15.343,15.343,0,0,1-5.12-.386,11.355,11.355,0,0,1-7.88-8.76,13,13,0,0,1,1.563-8.994,18.807,18.807,0,0,1,1.757-2.356c.235-.236.513-.45.751-.686a12.84,12.84,0,0,1,5.418-2.934,8.884,8.884,0,0,1,2.462-.365Z" transform="translate(-4799.486 -2907.422)" fill-rule="evenodd" fill="url(#linear-gradient)"/>
        <path id="Caminho_25" data-name="Caminho 25" d="M8157.076,3360.865a23.679,23.679,0,0,0-5.306.893c-.59.148-1.035.319-1.585.468a7.9,7.9,0,0,0-1.5.552c-.527.212-1.014.383-.951,1.105.063.575.488.872,1.163.787.78-.107.591-.212,1.522-.533a27.34,27.34,0,0,1,6.91-1.381,16.4,16.4,0,0,1,6.617,1.446,17.369,17.369,0,0,1,3.761,2.318,10.882,10.882,0,0,1,1.035,1,12.384,12.384,0,0,1,1.949,2.147,15.19,15.19,0,0,1,1.584,2.532,16.758,16.758,0,0,1,1.835,8.506c-.02.722-.1,1.276.4,1.6a.9.9,0,0,0,.783.107.917.917,0,0,0,.568-.554,10.159,10.159,0,0,0,.167-1.829,20.757,20.757,0,0,0-.552-4.764,17.927,17.927,0,0,0-1.27-3.442,18.886,18.886,0,0,0-17.161-10.975Z" transform="translate(-8076.044 -3350.269)" fill-rule="evenodd" fill="url(#linear-gradient-2)"/>
        <path id="Caminho_26" data-name="Caminho 26" d="M5458,4280.219l1.11-.037a.381.381,0,0,0,.111-.232c0-.114-.012-.229-.025-.342-.012-.146.062-.539-.073-.612a5.523,5.523,0,0,0,.025.636c.084.612-.012.49-.613.513l-.4.024c-.145.025.1-.036-.061.013l-.061.024Z" transform="translate(-5449.952 -4249.144)" fill-rule="evenodd" fill="url(#linear-gradient-3)"/>
      </g>
    </g>
  </g>
</svg>
