<svg xmlns="http://www.w3.org/2000/svg" width="26.998" height="14.781" viewBox="0 0 26.998 14.781">
  <g id="order_time_desc" transform="translate(-92.951 -93.207)">
    <g id="order_time" transform="translate(106 93.207)">
      <g id="Layer_1" data-name="Layer 1" transform="translate(0 0)">
        <path id="Caminho_192" data-name="Caminho 192" d="M8.536,2.169V1.263a7.249,7.249,0,0,0-1.617.321L6.538.413a8.51,8.51,0,0,1,5.223,0l-.381,1.171a7.249,7.249,0,0,0-1.617-.321v.905a6.322,6.322,0,1,1-1.231,0Zm.617,11.386A5.082,5.082,0,1,0,4.071,8.472a5.082,5.082,0,0,0,5.082,5.082Z" transform="translate(-2.172 -0.003)" fill="#fff"/>
        <path id="Caminho_193" data-name="Caminho 193" d="M48.984,9.357,47.97,8.664A8.427,8.427,0,0,1,50.146,6.49L50.839,7.5a7.188,7.188,0,0,0-1.855,1.853Z" transform="translate(-47.97 -4.991)" fill="#fff"/>
        <path id="Caminho_194" data-name="Caminho 194" d="M0,7.474.693,6.46A8.427,8.427,0,0,1,2.874,8.634l-1.014.693A7.189,7.189,0,0,0,0,7.474Z" transform="translate(11.076 -4.968)" fill="#fff"/>
        <path id="Caminho_195" data-name="Caminho 195" d="M28.74,23.464l1.234-.924V19.151a.617.617,0,1,1,1.231,0v3.7a.492.492,0,0,1-.018.141.416.416,0,0,1-.049.129.33.33,0,0,1-.067.111.176.176,0,0,0-.018.025.589.589,0,0,1-.088.081h0l-.025.018L28.5,25.182a.587.587,0,0,1-.37.125.633.633,0,0,1-.5-.243.617.617,0,0,1,.125-.862Z" transform="translate(-23.61 -14.225)" fill="#fff"/>
      </g>
    </g>
    <path id="Caminho_208" data-name="Caminho 208" d="M0,0h5.06V5.06S3.873,3.8,2.608,2.536,0,0,0,0Z" transform="translate(100.108 99.532) rotate(135)" fill="#fff"/>
  </g>
</svg>
