<svg xmlns="http://www.w3.org/2000/svg" width="22.576" height="14.797" viewBox="0 0 22.576 14.797">
  <path id="_5096032211595988894" data-name="5096032211595988894" d="M22.549,17.063a7.372,7.372,0,0,0-.282-1.2H18.321a.7.7,0,0,1,0-1.409h3.312a6.848,6.848,0,0,0-1.9-2.114.7.7,0,0,0,.634-.7,2.827,2.827,0,0,0-2.819-2.819H14.727a2.827,2.827,0,0,0-2.819,2.819.666.666,0,0,0,.7.7v2.114H8.6a.933.933,0,0,1-.916-.916V8.819h.7a.7.7,0,0,0,0-1.409H6.905A2.053,2.053,0,0,0,4.932,6H3.523a.666.666,0,0,0-.7.7V9.523a.666.666,0,0,0,.7.7H5l-1.48,3.523a3.523,3.523,0,1,0,0,7.046,3.544,3.544,0,0,0,3.453-2.819h7.187a3.524,3.524,0,0,0,6.905,0h.775a.8.8,0,0,0,.564-.211.548.548,0,0,0,.141-.564ZM3.523,19.388a2.076,2.076,0,0,1-2.114-2.114,2.114,2.114,0,0,1,1.55-2.043,2.1,2.1,0,0,0,.211,1.832,2.2,2.2,0,0,0,1.762.916H5.5A2.053,2.053,0,0,1,3.523,19.388Zm14.093,0a2.053,2.053,0,0,1-1.973-1.409h3.946A2.053,2.053,0,0,1,17.616,19.388Z" transform="translate(0 -6)" fill="#fff"/>
</svg>
