<svg xmlns="http://www.w3.org/2000/svg" width="24.819" height="14.275" viewBox="0 0 24.819 14.275">
  <g id="order_user_asc" transform="translate(-462.952 -92.725)">
    <g id="about" transform="translate(475.535 92.725)">
      <path id="Caminho_196" data-name="Caminho 196" d="M12.569,9.137a3.569,3.569,0,1,1,3.569-3.569A3.569,3.569,0,0,1,12.569,9.137Zm0-6.118a2.549,2.549,0,1,0,2.549,2.549A2.549,2.549,0,0,0,12.569,3.02Z" transform="translate(-6.451 -2)" fill="#fff"/>
      <path id="Caminho_197" data-name="Caminho 197" d="M9.608,18h1.02a5.608,5.608,0,0,1,5.608,5.608.51.51,0,0,1-.51.51H4.51a.51.51,0,0,1-.51-.51A5.608,5.608,0,0,1,9.608,18Zm5.577,5.1a4.588,4.588,0,0,0-4.558-4.078H9.608A4.588,4.588,0,0,0,5.05,23.1Z" transform="translate(-4 -9.843)" fill="#fff"/>
      <ellipse id="Elipse_18" data-name="Elipse 18" cx="2.799" cy="2.799" rx="2.799" ry="2.799" transform="translate(3.439 0.68)" fill="#fff"/>
      <path id="Caminho_207" data-name="Caminho 207" d="M0-.5c1.689,0,5.1,2.916,5.1,4.6s-4.394.987-6.084.987-4.95.3-4.95-1.391S-1.687-.5,0-.5Z" transform="translate(6.591 8.911)" fill="#fff"/>
    </g>
    <path id="Caminho_209" data-name="Caminho 209" d="M0,0h5.06V5.06S3.873,3.8,2.608,2.536,0,0,0,0Z" transform="translate(462.951 98.531) rotate(-45)" fill="#fff"/>
  </g>
</svg>
