<svg xmlns="http://www.w3.org/2000/svg" width="17.889" height="23" viewBox="0 0 17.889 23">
  <g id="Page-1" transform="translate(-6 -3)">
    <g id="icon-27-trash-can" transform="translate(6 3)">
      <path id="trash-can" d="M20.481,6.407h-1.7v-1.7A1.706,1.706,0,0,0,17.076,3H12.813a1.7,1.7,0,0,0-1.7,1.708v1.7H6v.852H7.7V23.439A2.553,2.553,0,0,0,10.259,26h9.37a2.553,2.553,0,0,0,2.556-2.561V7.259h1.7V6.407Zm-9.37,2.556V23.444h.852V8.963Zm3.407,0V23.444h.852V8.963Zm3.407,0V23.444h.852V8.963ZM12.817,3.852a.85.85,0,0,0-.854.851v1.7h5.963V4.7a.847.847,0,0,0-.854-.851Z" transform="translate(-6 -3)" fill="#ff2019" fill-rule="evenodd"/>
    </g>
  </g>
</svg>
