<svg xmlns="http://www.w3.org/2000/svg" width="14" height="14" viewBox="0 0 14 14">
  <g id="wallet_button" transform="translate(-2 -2.037)">
    <path id="Caminho_164" data-name="Caminho 164" d="M14.5,7.065H4A1.022,1.022,0,0,1,4,5.022H6a.478.478,0,0,0,.5-.511A.478.478,0,0,0,6,4H4A2.028,2.028,0,0,0,2,6.044v8.174a2.028,2.028,0,0,0,2,2.044H14.5A1.49,1.49,0,0,0,16,14.729V8.6A1.49,1.49,0,0,0,14.5,7.065Zm.5,2.963V13.3a1.452,1.452,0,0,0-.5-.1h-2a1.533,1.533,0,0,1,0-3.065h2A1.452,1.452,0,0,0,15,10.028Z" transform="translate(0 -0.224)" fill="#04bf68"/>
    <path id="Caminho_165" data-name="Caminho 165" d="M6.371,6.434c-.222,0-.371.354-.371.886s.148.886.371.886h7.04c.111,0,.222-.177.3-.354a1.933,1.933,0,0,0,.037-.8L13,2.624c-.074-.443-.3-.709-.482-.532L7.779,6.434Z" transform="translate(-0.456 0)" fill="#04bf68"/>
    <path id="Caminho_166" data-name="Caminho 166" d="M24.658,18H22.886a.886.886,0,1,0,0,1.772h1.772a.886.886,0,1,0,0-1.772Z" transform="translate(-13.087 -7.817)" fill="#04bf68"/>
  </g>
</svg>
